<svg width="461" height="115" viewBox="0 0 461 115" fill="none" xmlns="http://www.w3.org/2000/svg">
<path d="M152.166 42.3746C151.406 41.5809 150.086 41.2281 149.014 41.2281C147.67 41.2281 146.58 41.7925 146.58 42.7215C146.58 43.9621 147.764 44.1973 149.515 44.3502C152.196 44.5854 154.747 45.6143 154.747 48.754C154.747 51.8938 151.948 53.0991 149.008 53.1226C146.657 53.1402 144.205 52.2289 143.056 50.3298L144.865 48.4483C145.914 49.7888 147.647 50.3709 149.025 50.3709C150.64 50.3709 151.748 49.73 151.748 48.7599C151.765 47.6134 150.852 47.0901 149.008 46.9372C146.132 46.6668 143.563 45.9494 143.598 42.745C143.616 40.0463 146.185 38.6116 148.984 38.6116C151.082 38.6116 152.661 39.0761 154.058 40.7048L152.154 42.3746H152.166Z" fill="#0094D6"/>
<path d="M160.08 41.7925H155.937V39.0938H167.239V41.7925H163.097V52.6816H160.08V41.7925Z" fill="#0094D6"/>
<path d="M181.587 39.1173V46.7079C181.587 50.7414 179.33 52.8992 175.753 53.0168C172.194 53.1344 169.177 51.0942 169.177 46.7079V39.1173H172.194V46.7079C172.194 49.1303 173.556 50.3945 175.771 50.3004C177.833 50.1652 178.57 48.7482 178.57 46.7079V39.1173H181.587Z" fill="#0094D6"/>
<path d="M190.296 39.0997C194.98 39.0997 197.066 42.2453 197.066 45.7966C197.066 49.3479 195.063 52.6875 190.296 52.6875H184.716V39.1056H190.296V39.0997ZM187.709 49.8888H190.296C193.254 49.8888 194.067 47.7134 194.067 45.7554C194.067 43.7975 193.136 41.8337 190.296 41.8337H187.709V49.8888Z" fill="#0094D6"/>
<path d="M199.647 52.6817V39.0997H202.664V52.6817H199.647Z" fill="#0094D6"/>
<path d="M216.352 52.6817H205.987V39.0997H216.081V41.8749H208.963V44.4972H215.675V47.1548H208.963V49.8888H216.352V52.6817Z" fill="#0094D6"/>
<path d="M222.068 48.8364V52.6817H219.033V39.0997H225.45C228.933 39.0997 230.665 41.3516 230.665 43.968C230.665 46.5845 228.915 48.8011 225.45 48.8364H222.068ZM222.068 46.0612H225.45C226.911 46.0612 227.63 45.1087 227.63 44.0268C227.63 42.945 226.894 41.9689 225.45 41.9689H222.068V46.0612Z" fill="#0094D6"/>
<path d="M241.537 50.3533H234.554L233.564 52.6817H230.3L236.404 39.0997H239.71L245.814 52.6817H242.526L241.537 50.3533ZM238.054 42.163L235.703 47.6722H240.388L238.054 42.163Z" fill="#0094D6"/>
<path d="M259.62 52.6817H256.256L252.773 48.219H250.575V52.6817H247.541V39.0997H253.999C257.287 39.0997 259.037 41.2928 259.037 43.6799C259.019 45.4438 258.495 47.0196 255.885 47.9485L259.62 52.4523V52.6875V52.6817ZM250.575 41.6985V45.6555H254.04C255.443 45.6555 256.044 44.6089 256.044 43.7505C256.026 42.8215 255.419 41.6926 253.999 41.6926H250.575V41.6985Z" fill="#0094D6"/>
<path d="M264.694 41.7925H260.551V39.0938H271.853V41.7925H267.711V52.6816H264.694V41.7925Z" fill="#0094D6"/>
<path d="M283.461 47.925L283.267 43.6564V39.0938H286.319V52.6757H283.715L276.944 43.9797L277.062 48.4424V52.6757H273.992V39.0938H276.596L283.461 47.925Z" fill="#0094D6"/>
<path d="M300.007 52.6817H289.642V39.0997H299.736V41.8749H292.618V44.4972H299.329V47.1548H292.618V49.8888H300.007V52.6817Z" fill="#0094D6"/>
<path d="M314.762 52.6817H311.397L307.915 48.219H305.717V52.6817H302.682V39.0997H309.14C312.428 39.0997 314.178 41.2928 314.178 43.6799C314.161 45.4438 313.636 47.0196 311.026 47.9485L314.762 52.4523V52.6875V52.6817ZM305.717 41.6985V45.6555H309.182C310.584 45.6555 311.185 44.6089 311.185 43.7505C311.167 42.8215 310.56 41.6926 309.146 41.6926H305.723L305.717 41.6985Z" fill="#0094D6"/>
<path d="M332.186 48.607C332.186 49.2067 332.651 49.9829 333.547 49.7888V52.7757C332.144 52.9697 330.807 52.5817 330.394 51.0118C329.599 52.3876 328.061 52.9168 326.541 52.8933C324.054 52.8933 321.426 51.9996 321.367 48.8187C321.349 47.4193 322.204 46.314 323.583 45.6966C322.375 45.3085 321.756 43.8915 321.756 43.0213C321.756 39.7993 324.808 38.8468 327.047 38.8468C329.634 38.8468 331.985 39.8581 332.203 42.8273H329.422C329.269 41.7807 328.043 41.2927 326.971 41.3163C325.804 41.3339 324.773 41.9395 324.773 43.0213C324.773 44.3031 325.999 44.5559 326.93 44.5559H333.27V46.8666H332.18V48.6129L332.186 48.607ZM324.366 48.413C324.366 49.9241 325.922 50.218 326.936 50.218C327.654 50.218 329.505 49.7712 329.505 48.2778V46.8608H326.782C325.15 46.8608 324.372 47.6545 324.372 48.413H324.366Z" fill="#0094D6"/>
<path d="M350.541 50.3533H343.558L342.568 52.6817H339.304L345.408 39.0997H348.714L354.818 52.6817H351.53L350.541 50.3533ZM347.058 42.163L344.707 47.6722H349.392L347.058 42.163Z" fill="#0094D6"/>
<path d="M354.783 44.897H362.078V47.3605H354.783V44.897Z" fill="#0094D6"/>
<path d="M376.367 39.1761L370.846 45.6966L376.856 52.5053V52.6817H373.197L368.159 46.8784V52.6817H365.124V39.0997H368.159V44.7089L372.69 39.0997H376.367V39.1761Z" fill="#0094D6"/>
<path d="M388.152 50.3533H381.169L380.179 52.6817H376.915L383.02 39.0997H386.325L392.43 52.6817H389.142L388.152 50.3533ZM384.669 42.163L382.318 47.6722H387.003L384.669 42.163Z" fill="#0094D6"/>
<path d="M402.052 42.3746C401.292 41.5809 399.972 41.2281 398.9 41.2281C397.556 41.2281 396.466 41.7925 396.466 42.7215C396.466 43.9621 397.65 44.1973 399.4 44.3502C402.082 44.5854 404.633 45.6143 404.633 48.754C404.633 51.8938 401.834 53.0991 398.894 53.1226C396.543 53.1402 394.091 52.2289 392.942 50.3298L394.751 48.4483C395.8 49.7888 397.533 50.3709 398.911 50.3709C400.526 50.3709 401.634 49.73 401.634 48.7599C401.651 47.6134 400.738 47.0901 398.894 46.9372C396.018 46.6668 393.449 45.9494 393.485 42.745C393.502 40.0463 396.071 38.6116 398.87 38.6116C400.968 38.6116 402.547 39.0761 403.944 40.7048L402.04 42.3746H402.052Z" fill="#0094D6"/>
<path d="M415.063 42.3746C414.302 41.5809 412.983 41.2281 411.91 41.2281C410.567 41.2281 409.477 41.7925 409.477 42.7215C409.477 43.9621 410.661 44.1973 412.411 44.3502C415.092 44.5854 417.643 45.6143 417.643 48.754C417.643 51.8938 414.845 53.0991 411.904 53.1226C409.553 53.1402 407.102 52.2289 405.953 50.3298L407.762 48.4483C408.811 49.7888 410.543 50.3709 411.922 50.3709C413.536 50.3709 414.644 49.73 414.644 48.7599C414.662 47.6134 413.749 47.0901 411.904 46.9372C409.029 46.6668 406.46 45.9494 406.495 42.745C406.513 40.0463 409.082 38.6116 411.881 38.6116C413.978 38.6116 415.558 39.0761 416.954 40.7048L415.051 42.3746H415.063Z" fill="#0094D6"/>
<path d="M430.383 52.6817H420.018V39.0997H430.112V41.8749H422.994V44.4972H429.705V47.1548H422.994V49.8888H430.383V52.6817Z" fill="#0094D6"/>
<path d="M122.916 30.9093H116.163C101.55 30.9093 91.9455 41.8689 83.1775 52.9815C74.4862 63.994 67.8808 74.3951 54.8526 74.3951C54.8408 74.3951 54.8173 74.3951 54.7996 74.3951C50.2801 74.3951 46.562 72.6371 43.3624 69.4445C37.4699 63.5648 37.4699 51.4292 43.3624 45.5496C46.562 42.3569 50.2801 40.5989 54.7996 40.5989C59.3191 40.5989 63.5734 42.3569 66.773 45.5496C68.7529 47.5252 71.9583 47.5252 73.9382 45.5496C75.918 43.574 75.918 40.3755 73.9382 38.3999C68.8295 33.2964 62.0296 30.4918 54.7996 30.4918C47.5696 30.4918 40.7756 33.3023 35.661 38.3999C25.1076 48.9304 25.1076 66.0637 35.661 76.5882C40.7756 81.6918 47.5696 84.4964 54.7937 84.4964H54.8644C72.801 84.4905 81.2566 71.0673 90.5961 59.2257C98.5332 49.1656 105.922 41.0046 115.621 41.0046H117.843V62.3536H102.116C99.4583 62.3536 97.3017 64.5056 97.3017 67.1573C97.3017 69.809 99.4583 71.961 102.116 71.961H117.843V79.3223C117.843 82.1151 120.111 84.3788 122.91 84.3788C125.709 84.3788 127.978 82.1151 127.978 79.3223V35.9658C127.978 33.1729 125.709 30.9093 122.91 30.9093" fill="#0094D6"/>
<path d="M153.422 66.4V67.894H146.24V72.286H153.116V73.744H146.24V79.018H144.674V66.4H153.422ZM157.004 70.09L157.112 71.422C157.424 70.846 157.826 70.456 158.318 70.252C158.822 70.048 159.332 69.946 159.848 69.946C160.232 69.934 160.604 69.994 160.964 70.126C161.324 70.246 161.642 70.408 161.918 70.612L161.252 71.872C161.012 71.704 160.772 71.584 160.532 71.512C160.292 71.428 160.016 71.386 159.704 71.386C159.344 71.386 159.008 71.452 158.696 71.584C158.384 71.704 158.108 71.878 157.868 72.106C157.628 72.334 157.436 72.616 157.292 72.952C157.16 73.276 157.094 73.642 157.094 74.05V79H155.618V70.108H156.986L157.004 70.09ZM163.101 67.39C163.101 67.078 163.203 66.844 163.407 66.688C163.611 66.52 163.833 66.436 164.073 66.436C164.313 66.436 164.535 66.52 164.739 66.688C164.943 66.844 165.045 67.084 165.045 67.408C165.045 67.732 164.943 67.972 164.739 68.128C164.535 68.284 164.313 68.362 164.073 68.362C163.833 68.362 163.611 68.284 163.407 68.128C163.203 67.96 163.101 67.714 163.101 67.39ZM163.317 70.072H164.793V79H163.317V70.072ZM168.958 66.418V71.584C169.342 70.996 169.804 70.588 170.344 70.36C170.896 70.132 171.46 70.012 172.036 70C172.66 70 173.206 70.102 173.674 70.306C174.142 70.498 174.526 70.774 174.826 71.134C175.138 71.494 175.372 71.926 175.528 72.43C175.684 72.934 175.762 73.492 175.762 74.104V79H174.304V74.122C174.304 73.246 174.088 72.574 173.656 72.106C173.224 71.626 172.6 71.386 171.784 71.386C171.376 71.386 170.998 71.464 170.65 71.62C170.314 71.764 170.02 71.968 169.768 72.232C169.516 72.496 169.318 72.802 169.174 73.15C169.042 73.498 168.976 73.876 168.976 74.284V79H167.5V66.4H168.958V66.418ZM186.285 77.578C185.829 78.118 185.247 78.52 184.539 78.784C183.843 79.036 183.147 79.162 182.451 79.162C181.767 79.162 181.137 79.054 180.561 78.838C179.985 78.622 179.487 78.31 179.067 77.902C178.659 77.494 178.341 77.008 178.113 76.444C177.885 75.868 177.771 75.226 177.771 74.518C177.771 73.846 177.885 73.228 178.113 72.664C178.341 72.1 178.659 71.614 179.067 71.206C179.475 70.798 179.961 70.48 180.525 70.252C181.089 70.024 181.707 69.91 182.379 69.91C183.063 69.91 183.693 70.018 184.269 70.234C184.845 70.438 185.337 70.756 185.745 71.188C186.153 71.62 186.453 72.166 186.645 72.826C186.849 73.474 186.909 74.242 186.825 75.13H179.265C179.301 75.538 179.409 75.91 179.589 76.246C179.769 76.57 180.003 76.846 180.291 77.074C180.579 77.302 180.909 77.482 181.281 77.614C181.653 77.734 182.055 77.794 182.487 77.794C182.739 77.794 182.997 77.77 183.261 77.722C183.537 77.674 183.801 77.602 184.053 77.506C184.305 77.41 184.539 77.296 184.755 77.164C184.983 77.02 185.169 76.858 185.313 76.678L186.303 77.578H186.285ZM185.421 73.906C185.385 73.042 185.091 72.382 184.539 71.926C183.999 71.47 183.291 71.242 182.415 71.242C181.635 71.242 180.945 71.47 180.345 71.926C179.757 72.37 179.397 73.024 179.265 73.888H185.421V73.906ZM197.623 66.382V78.982H196.237L196.165 77.362C195.805 77.974 195.325 78.43 194.725 78.73C194.125 79.018 193.495 79.162 192.835 79.162C192.199 79.162 191.605 79.06 191.053 78.856C190.513 78.652 190.039 78.352 189.631 77.956C189.223 77.56 188.905 77.08 188.677 76.516C188.449 75.94 188.335 75.286 188.335 74.554C188.335 73.81 188.449 73.15 188.677 72.574C188.905 71.998 189.223 71.518 189.631 71.134C190.039 70.738 190.513 70.444 191.053 70.252C191.593 70.048 192.181 69.946 192.817 69.946C193.129 69.946 193.447 69.982 193.771 70.054C194.107 70.126 194.419 70.24 194.707 70.396C195.007 70.54 195.283 70.726 195.535 70.954C195.787 71.17 195.991 71.428 196.147 71.728V66.4H197.605L197.623 66.382ZM192.943 71.314C192.511 71.314 192.103 71.386 191.719 71.53C191.347 71.662 191.017 71.866 190.729 72.142C190.441 72.418 190.213 72.76 190.045 73.168C189.889 73.564 189.811 74.02 189.811 74.536C189.811 75.052 189.889 75.508 190.045 75.904C190.213 76.3 190.441 76.636 190.729 76.912C191.017 77.188 191.347 77.398 191.719 77.542C192.103 77.686 192.511 77.758 192.943 77.758C193.387 77.758 193.801 77.68 194.185 77.524C194.569 77.368 194.899 77.152 195.175 76.876C195.463 76.588 195.685 76.246 195.841 75.85C196.009 75.454 196.093 75.01 196.093 74.518C196.093 74.038 196.009 73.606 195.841 73.222C195.685 72.826 195.463 72.49 195.175 72.214C194.887 71.926 194.551 71.704 194.167 71.548C193.783 71.392 193.369 71.314 192.925 71.314H192.943ZM207.092 70.126H209.846V71.386H207.074V76.084C207.074 76.612 207.17 77.032 207.362 77.344C207.566 77.644 207.938 77.794 208.478 77.794C208.682 77.794 208.886 77.764 209.09 77.704C209.306 77.644 209.516 77.566 209.72 77.47L210.152 78.694C209.852 78.826 209.564 78.928 209.288 79C209.012 79.072 208.724 79.114 208.424 79.126C207.464 79.15 206.756 78.898 206.3 78.37C205.844 77.83 205.616 77.068 205.616 76.084V71.386H203.834V70.126H205.616V67.678L207.092 67.516V70.126ZM211.529 67.39C211.529 67.078 211.631 66.844 211.835 66.688C212.039 66.52 212.261 66.436 212.501 66.436C212.741 66.436 212.963 66.52 213.167 66.688C213.371 66.844 213.473 67.084 213.473 67.408C213.473 67.732 213.371 67.972 213.167 68.128C212.963 68.284 212.741 68.362 212.501 68.362C212.261 68.362 212.039 68.284 211.835 68.128C211.631 67.96 211.529 67.714 211.529 67.39ZM211.745 70.072H213.221V79H211.745V70.072ZM217.512 79H216.036V66.4H217.512V79ZM230.634 72.088C230.25 71.74 229.848 71.512 229.428 71.404C229.02 71.284 228.588 71.224 228.132 71.224C227.82 71.224 227.532 71.248 227.268 71.296C227.004 71.344 226.77 71.422 226.566 71.53C226.374 71.638 226.218 71.776 226.098 71.944C225.99 72.112 225.936 72.304 225.936 72.52C225.936 72.748 225.996 72.94 226.116 73.096C226.248 73.252 226.416 73.378 226.62 73.474C226.836 73.57 227.076 73.648 227.34 73.708C227.604 73.756 227.874 73.798 228.15 73.834C228.558 73.882 228.984 73.948 229.428 74.032C229.872 74.116 230.274 74.254 230.634 74.446C231.006 74.638 231.312 74.902 231.552 75.238C231.792 75.562 231.906 76 231.894 76.552C231.882 76.996 231.774 77.386 231.57 77.722C231.378 78.058 231.108 78.34 230.76 78.568C230.424 78.784 230.034 78.946 229.59 79.054C229.146 79.162 228.672 79.216 228.168 79.216C227.424 79.216 226.698 79.096 225.99 78.856C225.294 78.616 224.694 78.178 224.19 77.542L225.036 76.516C225.432 77.008 225.918 77.362 226.494 77.578C227.082 77.782 227.652 77.884 228.204 77.884C228.444 77.884 228.696 77.866 228.96 77.83C229.224 77.782 229.464 77.704 229.68 77.596C229.896 77.488 230.076 77.35 230.22 77.182C230.364 77.002 230.442 76.774 230.454 76.498C230.454 76.258 230.394 76.06 230.274 75.904C230.154 75.736 229.986 75.598 229.77 75.49C229.554 75.382 229.296 75.298 228.996 75.238C228.708 75.166 228.396 75.112 228.06 75.076C227.628 75.028 227.202 74.956 226.782 74.86C226.362 74.764 225.984 74.62 225.648 74.428C225.312 74.236 225.036 73.99 224.82 73.69C224.616 73.378 224.514 72.988 224.514 72.52C224.514 72.052 224.616 71.65 224.82 71.314C225.036 70.978 225.318 70.708 225.666 70.504C226.014 70.288 226.398 70.138 226.818 70.054C227.25 69.958 227.682 69.91 228.114 69.91C228.786 69.91 229.398 70 229.95 70.18C230.502 70.36 231.018 70.666 231.498 71.098L230.652 72.07L230.634 72.088ZM241.867 77.578C241.411 78.118 240.829 78.52 240.121 78.784C239.425 79.036 238.729 79.162 238.033 79.162C237.349 79.162 236.719 79.054 236.143 78.838C235.567 78.622 235.069 78.31 234.649 77.902C234.241 77.494 233.923 77.008 233.695 76.444C233.467 75.868 233.353 75.226 233.353 74.518C233.353 73.846 233.467 73.228 233.695 72.664C233.923 72.1 234.241 71.614 234.649 71.206C235.057 70.798 235.543 70.48 236.107 70.252C236.671 70.024 237.289 69.91 237.961 69.91C238.645 69.91 239.275 70.018 239.851 70.234C240.427 70.438 240.919 70.756 241.327 71.188C241.735 71.62 242.035 72.166 242.227 72.826C242.431 73.474 242.491 74.242 242.407 75.13H234.847C234.883 75.538 234.991 75.91 235.171 76.246C235.351 76.57 235.585 76.846 235.873 77.074C236.161 77.302 236.491 77.482 236.863 77.614C237.235 77.734 237.637 77.794 238.069 77.794C238.321 77.794 238.579 77.77 238.843 77.722C239.119 77.674 239.383 77.602 239.635 77.506C239.887 77.41 240.121 77.296 240.337 77.164C240.565 77.02 240.751 76.858 240.895 76.678L241.885 77.578H241.867ZM241.003 73.906C240.967 73.042 240.673 72.382 240.121 71.926C239.581 71.47 238.873 71.242 237.997 71.242C237.217 71.242 236.527 71.47 235.927 71.926C235.339 72.37 234.979 73.024 234.847 73.888H241.003V73.906ZM246.041 79H244.565V66.4H246.041V79ZM249.608 70.108L251.048 73.582L252.56 77.434L254.054 73.6L255.494 70.108H257.114L253.37 79.018H251.75L247.988 70.108H249.608ZM270.363 79.036L270.327 77.416C270.147 77.728 269.931 77.998 269.679 78.226C269.439 78.442 269.175 78.628 268.887 78.784C268.599 78.928 268.293 79.036 267.969 79.108C267.657 79.18 267.351 79.216 267.051 79.216C266.415 79.216 265.815 79.108 265.251 78.892C264.699 78.676 264.219 78.37 263.811 77.974C263.403 77.566 263.079 77.074 262.839 76.498C262.611 75.922 262.497 75.274 262.497 74.554C262.497 73.834 262.617 73.192 262.857 72.628C263.097 72.052 263.421 71.566 263.829 71.17C264.249 70.774 264.735 70.474 265.287 70.27C265.839 70.066 266.433 69.964 267.069 69.964C267.741 69.964 268.377 70.114 268.977 70.414C269.577 70.714 270.039 71.152 270.363 71.728L270.381 70.108H271.821V79H270.399L270.363 79.036ZM267.123 71.368C266.679 71.368 266.265 71.446 265.881 71.602C265.497 71.746 265.161 71.962 264.873 72.25C264.585 72.526 264.357 72.868 264.189 73.276C264.021 73.672 263.937 74.116 263.937 74.608C263.937 75.1 264.021 75.55 264.189 75.958C264.357 76.354 264.585 76.696 264.873 76.984C265.161 77.26 265.497 77.476 265.881 77.632C266.265 77.788 266.679 77.866 267.123 77.866C267.831 77.866 268.425 77.704 268.905 77.38C269.385 77.056 269.745 76.654 269.985 76.174C270.225 75.694 270.345 75.172 270.345 74.608C270.345 74.044 270.225 73.522 269.985 73.042C269.745 72.562 269.385 72.16 268.905 71.836C268.437 71.512 267.843 71.356 267.123 71.368ZM277.018 70.126H279.772V71.386H277V76.084C277 76.612 277.096 77.032 277.288 77.344C277.492 77.644 277.864 77.794 278.404 77.794C278.608 77.794 278.812 77.764 279.016 77.704C279.232 77.644 279.442 77.566 279.646 77.47L280.078 78.694C279.778 78.826 279.49 78.928 279.214 79C278.938 79.072 278.65 79.114 278.35 79.126C277.39 79.15 276.682 78.898 276.226 78.37C275.77 77.83 275.542 77.068 275.542 76.084V71.386H273.76V70.126H275.542V67.678L277.018 67.516V70.126ZM286.54 70.108L287.98 73.582L289.492 77.434L290.986 73.6L292.426 70.108H294.046L290.302 79.018H288.682L284.92 70.108H286.54ZM303.181 79.054V77.434C303.001 77.746 302.785 78.016 302.533 78.244C302.293 78.46 302.023 78.646 301.723 78.802C301.435 78.946 301.129 79.054 300.805 79.126C300.493 79.198 300.181 79.234 299.869 79.234C299.233 79.234 298.633 79.126 298.069 78.91C297.517 78.694 297.037 78.388 296.629 77.992C296.221 77.584 295.897 77.092 295.657 76.516C295.429 75.94 295.315 75.292 295.315 74.572C295.315 73.852 295.435 73.21 295.675 72.646C295.915 72.07 296.239 71.584 296.647 71.188C297.055 70.792 297.535 70.492 298.087 70.288C298.639 70.084 299.233 69.982 299.869 69.982C300.541 69.982 301.183 70.132 301.795 70.432C302.407 70.732 302.875 71.17 303.199 71.746L303.217 70.126H304.369V71.656C304.753 71.08 305.239 70.648 305.827 70.36C306.415 70.072 307.057 69.934 307.753 69.946C308.365 69.946 308.953 70.06 309.517 70.288C310.093 70.516 310.585 70.846 310.993 71.278C311.413 71.71 311.719 72.25 311.911 72.898C312.115 73.546 312.157 74.296 312.037 75.148H304.495C304.579 75.976 304.915 76.63 305.503 77.11C306.103 77.578 306.835 77.812 307.699 77.812C307.951 77.812 308.209 77.788 308.473 77.74C308.749 77.692 309.013 77.62 309.265 77.524C309.517 77.428 309.751 77.314 309.967 77.182C310.195 77.038 310.381 76.876 310.525 76.696L311.497 77.596C311.041 78.136 310.459 78.538 309.751 78.802C309.055 79.054 308.359 79.18 307.663 79.18C306.907 79.18 306.247 79.036 305.683 78.748C305.119 78.448 304.669 78.028 304.333 77.488L304.297 79H303.163L303.181 79.054ZM310.633 73.96C310.597 73.096 310.303 72.436 309.751 71.98C309.211 71.524 308.509 71.296 307.645 71.296C306.865 71.296 306.181 71.524 305.593 71.98C305.005 72.424 304.645 73.078 304.513 73.942H310.651L310.633 73.96ZM299.959 71.404C299.515 71.404 299.101 71.482 298.717 71.638C298.333 71.782 297.997 71.998 297.709 72.286C297.421 72.562 297.193 72.904 297.025 73.312C296.857 73.708 296.773 74.152 296.773 74.644C296.773 75.136 296.857 75.586 297.025 75.994C297.193 76.39 297.421 76.732 297.709 77.02C297.997 77.296 298.333 77.512 298.717 77.668C299.101 77.824 299.515 77.902 299.959 77.902C300.679 77.902 301.279 77.74 301.759 77.416C302.251 77.092 302.617 76.69 302.857 76.21C303.097 75.73 303.217 75.208 303.217 74.644C303.217 74.08 303.097 73.558 302.857 73.078C302.617 72.598 302.251 72.196 301.759 71.872C301.279 71.548 300.679 71.386 299.959 71.386V71.404ZM315.686 79H314.21V66.4H315.686V79ZM319.486 80.494C319.486 80.926 319.57 81.292 319.738 81.592C319.918 81.904 320.152 82.156 320.44 82.348C320.74 82.552 321.076 82.702 321.448 82.798C321.832 82.894 322.228 82.942 322.636 82.942C323.02 82.942 323.398 82.906 323.77 82.834C324.142 82.762 324.478 82.642 324.778 82.474C325.078 82.306 325.318 82.084 325.498 81.808C325.678 81.544 325.768 81.22 325.768 80.836C325.768 80.476 325.684 80.158 325.516 79.882C325.348 79.618 325.12 79.396 324.832 79.216C324.544 79.048 324.208 78.922 323.824 78.838C323.452 78.742 323.062 78.694 322.654 78.694C321.958 78.694 321.322 78.598 320.746 78.406C320.17 78.202 319.672 77.914 319.252 77.542C318.844 77.158 318.526 76.696 318.298 76.156C318.07 75.616 317.956 74.998 317.956 74.302C317.956 73.57 318.094 72.928 318.37 72.376C318.646 71.824 319.006 71.368 319.45 71.008C319.894 70.636 320.392 70.36 320.944 70.18C321.508 69.988 322.078 69.892 322.654 69.892C323.062 69.892 323.5 69.946 323.968 70.054C324.448 70.162 324.85 70.33 325.174 70.558L326.128 69.406L327.172 70.234L326.164 71.422C326.512 71.818 326.788 72.238 326.992 72.682C327.208 73.114 327.316 73.654 327.316 74.302C327.316 74.686 327.268 75.064 327.172 75.436C327.076 75.796 326.92 76.138 326.704 76.462C326.5 76.786 326.242 77.074 325.93 77.326C325.618 77.578 325.246 77.776 324.814 77.92C325.678 78.172 326.302 78.556 326.686 79.072C327.07 79.588 327.262 80.17 327.262 80.818C327.262 81.394 327.13 81.898 326.866 82.33C326.602 82.762 326.254 83.122 325.822 83.41C325.39 83.71 324.892 83.932 324.328 84.076C323.776 84.22 323.206 84.292 322.618 84.292C321.946 84.292 321.328 84.202 320.764 84.022C320.2 83.854 319.714 83.608 319.306 83.284C318.91 82.96 318.598 82.564 318.37 82.096C318.154 81.628 318.052 81.094 318.064 80.494H319.486ZM319.414 74.302C319.426 74.806 319.516 75.256 319.684 75.652C319.864 76.036 320.098 76.36 320.386 76.624C320.686 76.876 321.028 77.068 321.412 77.2C321.808 77.332 322.228 77.398 322.672 77.398C323.14 77.398 323.572 77.32 323.968 77.164C324.364 76.996 324.7 76.774 324.976 76.498C325.264 76.222 325.486 75.898 325.642 75.526C325.798 75.154 325.876 74.752 325.876 74.32C325.876 73.816 325.786 73.372 325.606 72.988C325.426 72.604 325.186 72.286 324.886 72.034C324.598 71.77 324.256 71.572 323.86 71.44C323.476 71.308 323.074 71.242 322.654 71.242C322.258 71.242 321.862 71.308 321.466 71.44C321.082 71.56 320.734 71.746 320.422 71.998C320.122 72.25 319.876 72.568 319.684 72.952C319.504 73.336 319.414 73.786 319.414 74.302ZM337.456 77.578C337 78.118 336.418 78.52 335.71 78.784C335.014 79.036 334.318 79.162 333.622 79.162C332.938 79.162 332.308 79.054 331.732 78.838C331.156 78.622 330.658 78.31 330.238 77.902C329.83 77.494 329.512 77.008 329.284 76.444C329.056 75.868 328.942 75.226 328.942 74.518C328.942 73.846 329.056 73.228 329.284 72.664C329.512 72.1 329.83 71.614 330.238 71.206C330.646 70.798 331.132 70.48 331.696 70.252C332.26 70.024 332.878 69.91 333.55 69.91C334.234 69.91 334.864 70.018 335.44 70.234C336.016 70.438 336.508 70.756 336.916 71.188C337.324 71.62 337.624 72.166 337.816 72.826C338.02 73.474 338.08 74.242 337.996 75.13H330.436C330.472 75.538 330.58 75.91 330.76 76.246C330.94 76.57 331.174 76.846 331.462 77.074C331.75 77.302 332.08 77.482 332.452 77.614C332.824 77.734 333.226 77.794 333.658 77.794C333.91 77.794 334.168 77.77 334.432 77.722C334.708 77.674 334.972 77.602 335.224 77.506C335.476 77.41 335.71 77.296 335.926 77.164C336.154 77.02 336.34 76.858 336.484 76.678L337.474 77.578H337.456ZM336.592 73.906C336.556 73.042 336.262 72.382 335.71 71.926C335.17 71.47 334.462 71.242 333.586 71.242C332.806 71.242 332.116 71.47 331.516 71.926C330.928 72.37 330.568 73.024 330.436 73.888H336.592V73.906Z" fill="black"/>
</svg>
