<svg xmlns="http://www.w3.org/2000/svg" width="32" height="32" viewBox="0 0 32 32">
  <path id="Path_1" data-name="Path 1" d="M5,0A5,5,0,0,0,0,5V27a5,5,0,0,0,5,5H27a5,5,0,0,0,5-5V5a5,5,0,0,0-5-5ZM19.118,8a3.936,3.936,0,0,0,.063.7,3.841,3.841,0,0,0,1.678,2.507,3.781,3.781,0,0,0,2.082.62v2.749a6.538,6.538,0,0,1-3.823-1.23v5.591a5.059,5.059,0,1,1-5.063-5.06,5.144,5.144,0,0,1,.683.048v.65l-.008,0h.008v2.155a2.308,2.308,0,0,0-1.752,4.25l.033.044a.392.392,0,0,0-.029-.048,2.283,2.283,0,0,0,1.073.267,2.312,2.312,0,0,0,2.3-2.225L16.372,8Z" fill="#4a4a4a" fill-rule="evenodd"/>
</svg>
