<?xml version="1.0" encoding="utf-8"?>
<!-- Generator: Adobe Illustrator 25.4.1, SVG Export Plug-In . SVG Version: 6.00 Build 0)  -->
<svg version="1.1" id="CA_LOGO_2021" xmlns="http://www.w3.org/2000/svg" xmlns:xlink="http://www.w3.org/1999/xlink" x="0px"
	 y="0px" viewBox="0 0 841.9 194.2" style="enable-background:new 0 0 841.9 194.2;" xml:space="preserve">
<style type="text/css">
	.st0{fill:#FFFFFF;}
	.st1{fill:#0094D6;}
	.st2{fill:none;}
	.st3{fill:#0095D6;}
</style>
<g>
	<g>
		<g>
			<path class="st3" d="M266.7,65.8l-9.4,11.1l10.2,11.6v0.3h-6.2l-8.5-9.9v9.9h-5.1V65.6h5.1v9.5l7.7-9.5h6.2V65.8z"/>
			<path class="st3" d="M286.7,84.8h-11.8l-1.7,4h-5.5L278,65.6h5.6L294,88.7h-5.6L286.7,84.8z M280.8,70.8l-4,9.4h8L280.8,70.8z"/>
			<path class="st3" d="M317.4,88.7h-5.7l-5.9-7.6h-3.7v7.6h-5.1V65.6c3.8,0,7.2,0,11,0c5.6,0,8.5,3.7,8.5,7.8c0,3-0.9,5.7-5.3,7.3
				l6.3,7.7V88.7z M302.1,70v6.7h5.9c2.4,0,3.4-1.8,3.4-3.2c0-1.6-1.1-3.5-3.5-3.5H302.1z"/>
			<path class="st3" d="M341.8,88.7h-5.7l-5.9-7.6h-3.7v7.6h-5.1V65.6c3.8,0,7.2,0,11,0c5.6,0,8.5,3.7,8.5,7.8c0,3-0.9,5.7-5.3,7.3
				l6.3,7.7V88.7z M326.5,70v6.7h5.9c2.4,0,3.4-1.8,3.4-3.2c0-1.6-1.1-3.5-3.5-3.5H326.5z"/>
			<path class="st3" d="M345.8,88.7V65.6h5.1v23.1H345.8z"/>
			<path class="st3" d="M374.1,88.7h-17.6c0-7.7,0-15.4,0-23.1h17.1v4.7h-12.1v4.5H373v4.5h-11.4V84h12.5V88.7z"/>
			<path class="st3" d="M399.2,88.7h-5.7l-5.9-7.6h-3.7v7.6h-5.1V65.6c3.8,0,7.2,0,11,0c5.6,0,8.5,3.7,8.5,7.8c0,3-0.9,5.7-5.3,7.3
				l6.3,7.7V88.7z M383.8,70v6.7h5.9c2.4,0,3.4-1.8,3.4-3.2c0-1.6-1.1-3.5-3.5-3.5H383.8z"/>
			<path class="st3" d="M420.7,88.7h-17.6c0-7.7,0-15.4,0-23.1h17.1v4.7h-12.1v4.5h11.4v4.5h-11.4V84h12.5V88.7z"/>
			<path class="st3" d="M430.4,82.2v6.5h-5.1V65.6c3.7,0,7.2,0,10.9,0c5.9,0,8.8,3.8,8.8,8.3c0,4.6-3,8.2-8.8,8.3H430.4z
				 M430.4,77.5h5.7c2.5,0,3.7-1.6,3.7-3.5c0-1.8-1.3-3.5-3.7-3.5h-5.7V77.5z"/>
			<path class="st3" d="M463.4,84.8h-11.8l-1.7,4h-5.5l10.4-23.1h5.6l10.4,23.1h-5.6L463.4,84.8z M457.5,70.8l-4,9.4h8L457.5,70.8z"
				/>
			<path class="st3" d="M494.1,88.7h-5.7l-5.9-7.6h-3.7v7.6h-5.1V65.6c3.8,0,7.2,0,11,0c5.6,0,8.5,3.7,8.5,7.8c0,3-0.9,5.7-5.3,7.3
				l6.3,7.7V88.7z M478.8,70v6.7h5.9c2.4,0,3.4-1.8,3.4-3.2c0-1.6-1.1-3.5-3.5-3.5H478.8z"/>
			<path class="st3" d="M502.7,70.2h-7v-4.6c6.7,0,12.4,0,19.2,0v4.6h-7v18.5h-5.1V70.2z"/>
			<path class="st3" d="M534.6,80.6l-0.3-7.3v-7.8h5.2v23.1H535l-11.5-14.8l0.2,7.6v7.2h-5.2V65.6h4.4L534.6,80.6z"/>
			<path class="st3" d="M562.6,88.7H545c0-7.7,0-15.4,0-23.1h17.1v4.7h-12.1v4.5h11.4v4.5h-11.4V84h12.5V88.7z"/>
			<path class="st3" d="M587.7,88.7H582l-5.9-7.6h-3.7v7.6h-5.1V65.6c3.8,0,7.2,0,11,0c5.6,0,8.5,3.7,8.5,7.8c0,3-0.9,5.7-5.3,7.3
				l6.3,7.7V88.7z M572.3,70v6.7h5.9c2.4,0,3.4-1.8,3.4-3.2c0-1.6-1.1-3.5-3.5-3.5H572.3z"/>
			<path class="st3" d="M617.1,81.8c0,1,0.8,2.3,2.3,2v5.1c-2.4,0.3-4.7-0.3-5.3-3c-1.4,2.3-4,3.2-6.5,3.2c-4.2,0-8.7-1.5-8.8-6.9
				c0-2.4,1.4-4.3,3.8-5.3c-2-0.7-3.1-3.1-3.1-4.6c0-5.5,5.2-7.1,9-7.1c4.4,0,8.4,1.7,8.7,6.8h-4.7c-0.3-1.8-2.3-2.6-4.2-2.6
				c-2,0-3.7,1.1-3.7,2.9c0,2.2,2.1,2.6,3.7,2.6c3.7,0,7.1,0,10.8,0v3.9h-1.8V81.8z M603.8,81.5c0,2.6,2.6,3.1,4.4,3.1
				c1.2,0,4.4-0.8,4.4-3.3v-2.4c-1.6,0-3.1,0-4.6,0C605.2,78.8,603.8,80.2,603.8,81.5z"/>
			<path class="st3" d="M649,84.8h-11.8l-1.7,4h-5.5l10.4-23.1h5.6l10.4,23.1h-5.6L649,84.8z M643.1,70.8l-4,9.4h8L643.1,70.8z"/>
			<path class="st3" d="M656.2,75.5h12.4v4.2h-12.4V75.5z"/>
			<path class="st3" d="M692.8,65.8l-9.4,11.1l10.2,11.6v0.3h-6.2l-8.5-9.9v9.9h-5.1V65.6h5.1v9.5l7.7-9.5h6.2V65.8z"/>
			<path class="st3" d="M712.8,84.8H701l-1.7,4h-5.5l10.4-23.1h5.6l10.4,23.1h-5.6L712.8,84.8z M706.9,70.8l-4,9.4h8L706.9,70.8z"/>
			<path class="st3" d="M736.4,71.2c-1.3-1.4-3.5-1.9-5.3-1.9c-2.3,0-4.1,1-4.1,2.5c0,2.1,2,2.5,5,2.8c4.6,0.4,8.9,2.1,8.9,7.5
				c0,5.1-4.8,7.4-9.7,7.4c-4,0-8.2-1.5-10.1-4.8l3.1-3.2c1.8,2.3,4.7,3.3,7.1,3.3c2.7,0,4.6-1.1,4.6-2.7c0-1.9-1.5-2.8-4.7-3.1
				c-4.9-0.5-9.2-1.7-9.2-7.1c0-4.6,4.4-7,9.1-7c3.6,0,6.2,0.8,8.6,3.6L736.4,71.2z"/>
			<path class="st3" d="M758.5,71.2c-1.3-1.4-3.5-1.9-5.3-1.9c-2.3,0-4.1,1-4.1,2.5c0,2.1,2,2.5,5,2.8c4.6,0.4,8.9,2.1,8.9,7.5
				c0,5.1-4.8,7.4-9.7,7.4c-4,0-8.2-1.5-10.1-4.8l3.1-3.2c1.8,2.3,4.7,3.3,7.1,3.3c2.7,0,4.6-1.1,4.6-2.7c0-1.9-1.5-2.8-4.7-3.1
				c-4.9-0.5-9.2-1.7-9.2-7.1c0-4.6,4.4-7,9.1-7c3.6,0,6.2,0.8,8.6,3.6L758.5,71.2z"/>
			<path class="st3" d="M784.5,88.7h-17.6c0-7.7,0-15.4,0-23.1h17.1v4.7H772v4.5h11.4v4.5H772V84h12.5V88.7z"/>
		</g>
		<g>
			<path d="M261.8,108c-1.2-2-3.8-2.6-6-2.7c-2.6,0-5.9,0.8-5.9,3.8c0,2.5,2.7,3.1,6,3.7c4.1,0.7,8.3,1.6,8.3,6.1c0,4.7-4.6,6-8.4,6
				c-3.5,0-7.1-1.3-8.8-4.6l1.8-1c1.4,2.7,4.4,3.6,6.9,3.6c2.6,0,6.3-0.7,6.3-4c0-2.9-3.1-3.6-6.4-4.1c-4-0.7-7.9-1.6-7.9-5.6
				c-0.1-4.4,4.4-5.8,8-5.8c2.9,0,6,0.8,7.8,3.7L261.8,108z"/>
			<path d="M280.3,109.9h1.9c0,5,0,9.9,0,14.8h-1.9v-2.9c-1.3,2.2-3.7,3.2-5.9,3.2c-4.2,0-7.6-3-7.6-7.7c0-4.7,3.4-7.6,7.6-7.6
				c2.3,0,4.7,1,5.8,3.1V109.9z M268.9,117.3c0,3.5,2.5,5.8,5.6,5.8c7.6,0,7.6-11.6,0-11.6C271.5,111.5,268.9,113.8,268.9,117.3z"/>
			<path d="M297.6,124.7v-8.6c0-2.6-1.7-4.6-4.3-4.6s-4.4,2-4.4,4.6v8.6h-2v-14.8h1.9l0.1,2.3c1-1.9,2.8-2.6,4.6-2.6
				c2.1,0,4.3,0.9,5.2,3.4c1-2.3,3.1-3.4,5.3-3.4c3.8,0,6.2,2.6,6.2,6.5v8.6h-2v-8.6c0-2.6-1.6-4.6-4.3-4.6c-2.6,0-4.4,2-4.4,4.6
				v8.6H297.6z"/>
			<path d="M325.5,124.7v-8.6c0-2.6-1.7-4.6-4.3-4.6s-4.4,2-4.4,4.6v8.6h-2v-14.8h1.9l0.1,2.3c1-1.9,2.8-2.6,4.6-2.6
				c2.1,0,4.3,0.9,5.2,3.4c1-2.3,3.1-3.4,5.3-3.4c3.8,0,6.2,2.6,6.2,6.5v8.6h-2v-8.6c0-2.6-1.6-4.6-4.3-4.6c-2.6,0-4.4,2-4.4,4.6
				v8.6H325.5z"/>
			<path d="M343.8,118.2c0.3,3.1,2.7,4.9,5.6,4.9c1.8,0,4-0.7,5-2l1.4,1.2c-1.5,1.8-4,2.8-6.4,2.8c-4.4,0-7.7-3-7.7-7.7
				c0-4.4,3.2-7.7,7.6-7.7c4.4,0,7.9,2.7,7.4,8.5H343.8z M354.8,116.4c-0.1-3.2-2.5-5-5.5-5c-3,0-5.2,1.8-5.5,5H354.8z"/>
			<path d="M371.9,124.7v-8.3c0-3.2-1.9-4.9-4.8-4.9c-2.9,0-4.9,2.3-4.9,5.1v8.1h-2v-14.8h1.9l0.1,2.5c1.2-1.9,3.1-2.7,5.2-2.7
				c3.8,0,6.6,2.3,6.6,6.7v8.3H371.9z"/>
			<path d="M400.6,117.3c0,4.6-3.2,7.6-7.6,7.6c-4.3,0-7.6-3-7.6-7.6c0-4.6,3.2-7.7,7.6-7.7C397.3,109.6,400.6,112.8,400.6,117.3z
				 M387.3,117.3c0,3.5,2.3,5.7,5.6,5.7c3.3,0,5.6-2.3,5.6-5.7c0-3.4-2.3-5.9-5.6-5.9S387.3,113.9,387.3,117.3z"/>
			<path d="M415,124.7v-8.6c0-2.6-1.7-4.6-4.3-4.6s-4.4,2-4.4,4.6v8.6h-2v-14.8h1.9l0.1,2.3c1-1.9,2.8-2.6,4.6-2.6
				c2.1,0,4.3,0.9,5.2,3.4c1-2.3,3.1-3.4,5.3-3.4c3.8,0,6.2,2.6,6.2,6.5v8.6h-2v-8.6c0-2.6-1.7-4.6-4.3-4.6s-4.4,2-4.4,4.6v8.6H415z
				"/>
			<path d="M454.4,103.7v21h-2l-0.1-3c-1.2,2.1-3.5,3.2-5.8,3.2c-4.2,0-7.5-2.8-7.5-7.7c0-4.9,3.3-7.7,7.5-7.7c2.3,0,4.7,1,5.8,3.2
				v-9.1H454.4z M441.1,117.3c0,3.7,2.5,5.8,5.6,5.8c3.2,0,5.6-2.3,5.6-5.8c0-3.4-2.5-5.7-5.6-5.7
				C443.6,111.6,441.1,113.5,441.1,117.3z"/>
			<path d="M461.5,105.3c0,1.9-2.9,1.9-2.9,0C458.7,103.4,461.5,103.4,461.5,105.3z M459,109.8v14.9h2v-14.9H459z"/>
			<path d="M477.4,124.7v-8.3c0-3.2-1.9-4.9-4.8-4.9c-2.9,0-4.9,2.3-4.9,5.1v8.1h-2v-14.8h1.9l0.1,2.5c1.2-1.9,3.2-2.7,5.2-2.7
				c3.8,0,6.6,2.3,6.6,6.7v8.3H477.4z"/>
			<path d="M493.6,109.9v8.3c0,3.1,1.9,4.9,4.9,4.8c2.8,0,4.9-2.2,4.9-5.1v-8.1h2v14.8h-1.9l-0.1-2.5c-1.2,1.9-3.2,2.7-5.2,2.7
				c-3.8,0-6.5-2.5-6.5-6.7v-8.3H493.6z"/>
			<path d="M524.4,103.7v21h-1.9l-0.1-3c-1.2,2.1-3.5,3.2-5.8,3.2c-4.2,0-7.5-2.8-7.5-7.7c0-4.9,3.3-7.7,7.5-7.7
				c2.3,0,4.7,1,5.8,3.2v-9.1H524.4z M511.1,117.3c0,3.7,2.5,5.8,5.6,5.8c3.2,0,5.6-2.3,5.6-5.8c0-3.4-2.5-5.7-5.6-5.7
				C513.6,111.6,511.1,113.5,511.1,117.3z"/>
			<path d="M542.4,109.9l-6.2,14.8h-2.2l-6.2-14.8h2.2l5.1,12.6l5.1-12.6H542.4z"/>
			<path d="M548.1,105.3c0,1.9-2.8,1.9-2.8,0C545.3,103.4,548.1,103.4,548.1,105.3z M545.7,109.8v14.9h2v-14.9H545.7z"/>
			<path d="M554.3,103.7v12.5l6.5-6.4h2.5v0.1l-7.1,6.9l8,7.7v0.1h-2.6l-7.3-7.1v7.1h-2v-21H554.3z"/>
			<path d="M569,103.7v21h-2v-21H569z"/>
			<path d="M576.4,105.3c0,1.9-2.8,1.9-2.8,0C573.5,103.4,576.4,103.4,576.4,105.3z M573.9,109.8v14.9h2v-14.9H573.9z"/>
			<path d="M592.3,124.7v-8.3c0-3.2-1.9-4.9-4.8-4.9c-2.9,0-4.9,2.3-4.9,5.1v8.1h-2v-14.8h1.9l0.1,2.5c1.2-1.9,3.2-2.7,5.2-2.7
				c3.8,0,6.6,2.3,6.6,6.7v8.3H592.3z"/>
			<path d="M611.6,108.9l1.4,1.1l-1.6,1.9c1.1,1.2,2,2.5,2,4.9c0,2.6-1.4,5.3-4.5,6.2c2.8,0.8,4.4,2.4,4.4,4.9
				c0,3.7-3.7,5.6-7.6,5.6c-4.2,0-7.5-2.3-7.5-6.1h2c0,2.8,2.7,4.2,5.5,4.2c2.7,0,5.6-1.1,5.6-3.7c0-2.6-2.8-3.8-5.6-3.8
				c-4.6,0-7.8-2.7-7.8-7.3c0-4.8,4-7.3,7.8-7.3c1.4,0,3.3,0.4,4.4,1.2L611.6,108.9z M600,116.8c0,3.7,2.5,5.4,5.7,5.4
				c3.4,0,5.7-2.5,5.7-5.4c0-3.7-2.8-5.4-5.7-5.4C603,111.4,600,113.1,600,116.8z"/>
			<path d="M639.3,117.3c0,4.6-3.2,7.6-7.6,7.6c-4.3,0-7.6-3-7.6-7.6c0-4.6,3.2-7.7,7.6-7.7C636,109.6,639.3,112.8,639.3,117.3z
				 M626.1,117.3c0,3.5,2.3,5.7,5.6,5.7c3.3,0,5.6-2.3,5.6-5.7c0-3.4-2.3-5.9-5.6-5.9S626.1,113.9,626.1,117.3z"/>
			<path d="M655.8,108.9l1.4,1.1l-1.6,1.9c1.1,1.2,2,2.5,2,4.9c0,2.6-1.4,5.3-4.5,6.2c2.8,0.8,4.4,2.4,4.4,4.9
				c0,3.7-3.7,5.6-7.6,5.6c-4.2,0-7.5-2.3-7.5-6.1h2c0,2.8,2.7,4.2,5.5,4.2c2.7,0,5.6-1.1,5.6-3.7c0-2.6-2.8-3.8-5.6-3.8
				c-4.6,0-7.8-2.7-7.8-7.3c0-4.8,4-7.3,7.8-7.3c1.4,0,3.3,0.4,4.4,1.2L655.8,108.9z M644.1,116.8c0,3.7,2.5,5.4,5.7,5.4
				c3.4,0,5.7-2.5,5.7-5.4c0-3.7-2.8-5.4-5.7-5.4C647.1,111.4,644.1,113.1,644.1,116.8z"/>
			<path d="M672.3,105.5v4.4h4.8v1.7h-4.8v8.4c0,1.9,0.5,3.1,2.5,3.1c0.7,0,1.4-0.2,2.2-0.6l0.6,1.7c-1,0.5-1.9,0.7-2.8,0.7
				c-3.2,0-4.5-1.8-4.5-4.9v-8.4h-3v-1.7h3v-4.2L672.3,105.5z"/>
			<path d="M682.2,109.9l0.1,2.4c1-2,2.9-2.7,4.7-2.7c1.3,0,2.3,0.3,3.4,1l-0.9,1.7c-0.8-0.5-1.6-0.8-2.5-0.8c-2.5,0-4.6,2-4.6,4.7
				v8.4h-2v-14.8H682.2z"/>
			<path d="M706,109.9l-9.4,21.9h-2.2l3.1-7.3l-5.9-14.6h2.2l3.2,8.2l1.6,4.3l1.7-4.3l3.5-8.2H706z"/>
			<path d="M721.4,108.9l1.4,1.1l-1.6,1.9c1.1,1.2,2,2.5,2,4.9c0,2.6-1.4,5.3-4.5,6.2c2.8,0.8,4.4,2.4,4.4,4.9
				c0,3.7-3.7,5.6-7.6,5.6c-4.2,0-7.5-2.3-7.5-6.1h2c0,2.8,2.7,4.2,5.5,4.2c2.7,0,5.6-1.1,5.6-3.7c0-2.6-2.8-3.8-5.6-3.8
				c-4.6,0-7.8-2.7-7.8-7.3c0-4.8,4-7.3,7.8-7.3c1.4,0,3.3,0.4,4.4,1.2L721.4,108.9z M709.7,116.8c0,3.7,2.5,5.4,5.7,5.4
				c3.4,0,5.7-2.5,5.7-5.4c0-3.7-2.8-5.4-5.7-5.4C712.7,111.4,709.7,113.1,709.7,116.8z"/>
			<path d="M728.9,103.7v8.8c1.2-2,3.2-2.8,5.2-2.8c4.1,0,6.2,2.7,6.2,6.7v8.3h-2v-8.3c0-3-1.4-4.8-4.4-4.8c-2.9,0-4.9,2.3-4.9,5.1
				v8h-2v-21H728.9z"/>
			<path d="M745.8,118.2c0.3,3.1,2.7,4.9,5.6,4.9c1.8,0,4-0.7,5-2l1.3,1.2c-1.5,1.8-4,2.8-6.4,2.8c-4.4,0-7.7-3-7.7-7.7
				c0-4.4,3.2-7.7,7.6-7.7s7.9,2.7,7.4,8.5H745.8z M756.9,116.4c-0.1-3.2-2.5-5-5.5-5c-3,0-5.2,1.8-5.5,5H756.9z"/>
			<path d="M776.7,103.7v21h-1.9l-0.1-3c-1.2,2.1-3.5,3.2-5.8,3.2c-4.2,0-7.5-2.8-7.5-7.7c0-4.9,3.3-7.7,7.5-7.7
				c2.3,0,4.7,1,5.8,3.2v-9.1H776.7z M763.4,117.3c0,3.7,2.5,5.8,5.6,5.8c3.2,0,5.6-2.3,5.6-5.8c0-3.4-2.5-5.7-5.6-5.7
				C765.9,111.6,763.4,113.5,763.4,117.3z"/>
		</g>
		<path class="st3" d="M212.5,51.7h-11.5c-24.8,0-41.1,18.6-56,37.5c-14.7,18.7-26,36.4-48.1,36.4c0,0-0.1,0-0.1,0
			c-7.7,0-14-3-19.4-8.4c-10-10-10-30.6,0-40.6c5.4-5.4,11.7-8.4,19.4-8.4c7.7,0,14.9,3,20.3,8.4c3.4,3.4,8.8,3.4,12.2,0
			c3.4-3.4,3.4-8.8,0-12.2C120.7,55.8,109.2,51,96.9,51c-12.3,0-23.8,4.8-32.5,13.5c-17.9,17.9-17.9,47,0,65
			c8.7,8.7,20.2,13.5,32.5,13.5H97l0,0c30.4,0,44.8-22.8,60.6-43c13.5-17.1,26-31,42.5-31h3.8v36.3h-26.7c-4.5,0-8.2,3.7-8.2,8.2
			c0,4.5,3.7,8.2,8.2,8.2h26.7v12.5c0,4.7,3.8,8.6,8.6,8.6s8.6-3.8,8.6-8.6V60.3C221.1,55.6,217.3,51.7,212.5,51.7"/>
	</g>
	<rect class="st2" width="841.9" height="194.2"/>
</g>
</svg>
