<svg id="Group_1" data-name="Group 1" xmlns="http://www.w3.org/2000/svg" width="32" height="32" viewBox="0 0 32 32">
  <path id="Path_1" data-name="Path 1" d="M16,18.8A2.8,2.8,0,1,1,18.8,16,2.862,2.862,0,0,1,16,18.8Z" fill="#4a4a4a"/>
  <path id="Path_2" data-name="Path 2" d="M19.4,9.2H12.6a7.515,7.515,0,0,0-1.5.3,2.075,2.075,0,0,0-1,.6,2.438,2.438,0,0,0-.485.762c-.036.076-.073.155-.115.238-.015.046-.033.1-.052.148A3.53,3.53,0,0,0,9.2,12.6v6.8a7.515,7.515,0,0,0,.3,1.5,2.075,2.075,0,0,0,.6,1,2.438,2.438,0,0,0,.762.485c.076.036.155.073.238.115.046.015.1.033.148.052A3.53,3.53,0,0,0,12.6,22.8h6.8a7.515,7.515,0,0,0,1.5-.3,2.075,2.075,0,0,0,1-.6,2.438,2.438,0,0,0,.485-.762c.036-.076.073-.155.115-.238.015-.046.033-.1.052-.147A3.53,3.53,0,0,0,22.8,19.4V12.6a7.515,7.515,0,0,0-.3-1.5,2.075,2.075,0,0,0-.6-1,2.438,2.438,0,0,0-.762-.485c-.076-.036-.155-.073-.238-.115-.046-.015-.1-.033-.147-.052A3.529,3.529,0,0,0,19.4,9.2ZM16,11.7A4.3,4.3,0,1,0,20.3,16,4.268,4.268,0,0,0,16,11.7Zm5.4-.1a1,1,0,1,1-1-1A1,1,0,0,1,21.4,11.6Z" fill="#4a4a4a" fill-rule="evenodd"/>
  <path id="Path_3" data-name="Path 3" d="M0,5A5,5,0,0,1,5,0H27a5,5,0,0,1,5,5V27a5,5,0,0,1-5,5H5a5,5,0,0,1-5-5ZM12.6,7.7h6.8a7.743,7.743,0,0,1,2,.4,4.923,4.923,0,0,1,1.5,1,4.366,4.366,0,0,1,1,1.5,5.019,5.019,0,0,1,.4,2v6.8a7.743,7.743,0,0,1-.4,2,4.923,4.923,0,0,1-1,1.5,4.366,4.366,0,0,1-1.5,1,5.019,5.019,0,0,1-2,.4H12.6a7.743,7.743,0,0,1-2-.4,4.923,4.923,0,0,1-1.5-1,4.366,4.366,0,0,1-1-1.5,5.019,5.019,0,0,1-.4-2V12.6a7.743,7.743,0,0,1,.4-2,4.923,4.923,0,0,1,1-1.5,4.366,4.366,0,0,1,1.5-1A5.019,5.019,0,0,1,12.6,7.7Z" fill="#4a4a4a" fill-rule="evenodd"/>
</svg>
