<svg xmlns="http://www.w3.org/2000/svg" xmlns:xlink="http://www.w3.org/1999/xlink" width="32" height="32" viewBox="0 0 32 32">
  <defs>
    <clipPath id="clip-Custom_Size_1">
      <rect width="32" height="32"/>
    </clipPath>
  </defs>
  <g id="Custom_Size_1" data-name="Custom Size – 1" clip-path="url(#clip-Custom_Size_1)">
    <rect width="32" height="32" fill="#fff"/>
    <path id="Path_1" data-name="Path 1" d="M0,5A5,5,0,0,1,5,0H27a5,5,0,0,1,5,5V27a5,5,0,0,1-5,5H5a5,5,0,0,1-5-5Zm8.2,8.3V24h3.4V13.3ZM8,9.9a1.839,1.839,0,0,0,1.9,1.9,1.839,1.839,0,0,0,1.9-1.9A1.839,1.839,0,0,0,9.9,8,1.9,1.9,0,0,0,8,9.9ZM20.6,24h3.2V17.4c0-3.3-2-4.4-3.9-4.4a3.613,3.613,0,0,0-3.2,1.8V13.3H13.5V24h3.4V18.3a2.09,2.09,0,0,1,2-2.3c1,0,1.7.5,1.7,2.2Z" fill="#4a4a4a" fill-rule="evenodd"/>
  </g>
</svg>
