<svg width="461" height="115" viewBox="0 0 461 115" fill="none" xmlns="http://www.w3.org/2000/svg">
<path d="M152.166 42.3746C151.406 41.5809 150.086 41.2281 149.014 41.2281C147.67 41.2281 146.58 41.7925 146.58 42.7215C146.58 43.9621 147.764 44.1973 149.515 44.3502C152.196 44.5854 154.747 45.6143 154.747 48.754C154.747 51.8938 151.948 53.0991 149.008 53.1226C146.657 53.1402 144.205 52.2289 143.056 50.3298L144.865 48.4483C145.914 49.7888 147.647 50.3709 149.025 50.3709C150.64 50.3709 151.748 49.73 151.748 48.7599C151.765 47.6134 150.852 47.0901 149.008 46.9372C146.132 46.6668 143.563 45.9494 143.598 42.745C143.616 40.0463 146.185 38.6116 148.984 38.6116C151.082 38.6116 152.661 39.0761 154.058 40.7048L152.154 42.3746H152.166Z" fill="#0094D6"/>
<path d="M160.08 41.7925H155.937V39.0938H167.239V41.7925H163.097V52.6816H160.08V41.7925Z" fill="#0094D6"/>
<path d="M181.587 39.1173V46.7079C181.587 50.7414 179.33 52.8992 175.753 53.0168C172.194 53.1344 169.177 51.0942 169.177 46.7079V39.1173H172.194V46.7079C172.194 49.1303 173.556 50.3945 175.771 50.3004C177.833 50.1652 178.57 48.7482 178.57 46.7079V39.1173H181.587Z" fill="#0094D6"/>
<path d="M190.296 39.0997C194.98 39.0997 197.066 42.2453 197.066 45.7966C197.066 49.3479 195.063 52.6875 190.296 52.6875H184.716V39.1056H190.296V39.0997ZM187.709 49.8888H190.296C193.254 49.8888 194.067 47.7134 194.067 45.7554C194.067 43.7975 193.136 41.8337 190.296 41.8337H187.709V49.8888Z" fill="#0094D6"/>
<path d="M199.647 52.6817V39.0997H202.664V52.6817H199.647Z" fill="#0094D6"/>
<path d="M216.352 52.6817H205.988V39.0997H216.081V41.8749H208.963V44.4972H215.675V47.1548H208.963V49.8888H216.352V52.6817Z" fill="#0094D6"/>
<path d="M222.068 48.8364V52.6817H219.033V39.0997H225.45C228.933 39.0997 230.665 41.3516 230.665 43.968C230.665 46.5845 228.915 48.8011 225.45 48.8364H222.068ZM222.068 46.0612H225.45C226.911 46.0612 227.63 45.1087 227.63 44.0268C227.63 42.945 226.894 41.9689 225.45 41.9689H222.068V46.0612Z" fill="#0094D6"/>
<path d="M241.537 50.3533H234.554L233.564 52.6817H230.3L236.404 39.0997H239.71L245.814 52.6817H242.526L241.537 50.3533ZM238.054 42.163L235.703 47.6722H240.388L238.054 42.163Z" fill="#0094D6"/>
<path d="M259.62 52.6817H256.256L252.773 48.219H250.575V52.6817H247.541V39.0997H253.999C257.287 39.0997 259.037 41.2928 259.037 43.6799C259.019 45.4438 258.495 47.0196 255.885 47.9485L259.62 52.4523V52.6875V52.6817ZM250.575 41.6985V45.6555H254.04C255.443 45.6555 256.044 44.6089 256.044 43.7505C256.026 42.8215 255.419 41.6926 253.999 41.6926H250.575V41.6985Z" fill="#0094D6"/>
<path d="M264.694 41.7925H260.551V39.0938H271.853V41.7925H267.711V52.6816H264.694V41.7925Z" fill="#0094D6"/>
<path d="M283.461 47.925L283.267 43.6564V39.0938H286.319V52.6757H283.714L276.944 43.9797L277.062 48.4424V52.6757H273.992V39.0938H276.596L283.461 47.925Z" fill="#0094D6"/>
<path d="M300.007 52.6817H289.642V39.0997H299.736V41.8749H292.618V44.4972H299.329V47.1548H292.618V49.8888H300.007V52.6817Z" fill="#0094D6"/>
<path d="M314.762 52.6817H311.397L307.915 48.219H305.717V52.6817H302.682V39.0997H309.14C312.428 39.0997 314.178 41.2928 314.178 43.6799C314.161 45.4438 313.636 47.0196 311.026 47.9485L314.762 52.4523V52.6875V52.6817ZM305.717 41.6985V45.6555H309.182C310.584 45.6555 311.185 44.6089 311.185 43.7505C311.167 42.8215 310.56 41.6926 309.146 41.6926H305.723L305.717 41.6985Z" fill="#0094D6"/>
<path d="M332.186 48.607C332.186 49.2067 332.651 49.9829 333.547 49.7888V52.7757C332.144 52.9697 330.807 52.5817 330.394 51.0118C329.599 52.3876 328.061 52.9168 326.541 52.8933C324.054 52.8933 321.426 51.9996 321.367 48.8187C321.35 47.4193 322.204 46.314 323.583 45.6966C322.375 45.3085 321.756 43.8915 321.756 43.0213C321.756 39.7993 324.808 38.8468 327.048 38.8468C329.634 38.8468 331.985 39.8581 332.203 42.8273H329.422C329.269 41.7807 328.043 41.2927 326.971 41.3163C325.804 41.3339 324.773 41.9395 324.773 43.0213C324.773 44.3031 325.999 44.5559 326.93 44.5559H333.27V46.8666H332.18V48.6129L332.186 48.607ZM324.366 48.413C324.366 49.9241 325.922 50.218 326.936 50.218C327.654 50.218 329.505 49.7712 329.505 48.2778V46.8608H326.782C325.15 46.8608 324.372 47.6545 324.372 48.413H324.366Z" fill="#0094D6"/>
<path d="M350.541 50.3533H343.558L342.568 52.6817H339.304L345.408 39.0997H348.714L354.818 52.6817H351.53L350.541 50.3533ZM347.058 42.163L344.707 47.6722H349.392L347.058 42.163Z" fill="#0094D6"/>
<path d="M354.783 44.897H362.078V47.3605H354.783V44.897Z" fill="#0094D6"/>
<path d="M376.367 39.1761L370.846 45.6966L376.856 52.5053V52.6817H373.197L368.159 46.8784V52.6817H365.124V39.0997H368.159V44.7089L372.69 39.0997H376.367V39.1761Z" fill="#0094D6"/>
<path d="M388.152 50.3533H381.169L380.179 52.6817H376.915L383.02 39.0997H386.325L392.43 52.6817H389.142L388.152 50.3533ZM384.669 42.163L382.318 47.6722H387.003L384.669 42.163Z" fill="#0094D6"/>
<path d="M402.052 42.3746C401.292 41.5809 399.972 41.2281 398.9 41.2281C397.556 41.2281 396.466 41.7925 396.466 42.7215C396.466 43.9621 397.65 44.1973 399.4 44.3502C402.082 44.5854 404.633 45.6143 404.633 48.754C404.633 51.8938 401.834 53.0991 398.894 53.1226C396.543 53.1402 394.091 52.2289 392.942 50.3298L394.751 48.4483C395.8 49.7888 397.533 50.3709 398.911 50.3709C400.526 50.3709 401.634 49.73 401.634 48.7599C401.651 47.6134 400.738 47.0901 398.894 46.9372C396.018 46.6668 393.449 45.9494 393.485 42.745C393.502 40.0463 396.071 38.6116 398.87 38.6116C400.968 38.6116 402.547 39.0761 403.944 40.7048L402.04 42.3746H402.052Z" fill="#0094D6"/>
<path d="M415.063 42.3746C414.302 41.5809 412.983 41.2281 411.91 41.2281C410.567 41.2281 409.477 41.7925 409.477 42.7215C409.477 43.9621 410.661 44.1973 412.411 44.3502C415.092 44.5854 417.643 45.6143 417.643 48.754C417.643 51.8938 414.845 53.0991 411.904 53.1226C409.553 53.1402 407.102 52.2289 405.953 50.3298L407.762 48.4483C408.811 49.7888 410.543 50.3709 411.922 50.3709C413.536 50.3709 414.644 49.73 414.644 48.7599C414.662 47.6134 413.749 47.0901 411.904 46.9372C409.029 46.6668 406.46 45.9494 406.495 42.745C406.513 40.0463 409.082 38.6116 411.881 38.6116C413.978 38.6116 415.558 39.0761 416.954 40.7048L415.051 42.3746H415.063Z" fill="#0094D6"/>
<path d="M430.383 52.6817H420.018V39.0997H430.112V41.8749H422.994V44.4972H429.705V47.1548H422.994V49.8888H430.383V52.6817Z" fill="#0094D6"/>
<path d="M122.916 30.9093H116.163C101.55 30.9093 91.9455 41.8689 83.1775 52.9815C74.4862 63.994 67.8808 74.3951 54.8526 74.3951C54.8408 74.3951 54.8173 74.3951 54.7996 74.3951C50.2801 74.3951 46.562 72.6371 43.3624 69.4445C37.4699 63.5648 37.4699 51.4292 43.3624 45.5496C46.562 42.3569 50.2801 40.5989 54.7996 40.5989C59.3191 40.5989 63.5734 42.3569 66.773 45.5496C68.7529 47.5252 71.9583 47.5252 73.9382 45.5496C75.918 43.574 75.918 40.3755 73.9382 38.3999C68.8295 33.2964 62.0296 30.4918 54.7996 30.4918C47.5696 30.4918 40.7756 33.3023 35.661 38.3999C25.1076 48.9304 25.1076 66.0637 35.661 76.5882C40.7756 81.6918 47.5696 84.4964 54.7937 84.4964H54.8644C72.801 84.4905 81.2566 71.0673 90.5961 59.2257C98.5332 49.1656 105.922 41.0046 115.621 41.0046H117.843V62.3536H102.116C99.4583 62.3536 97.3017 64.5056 97.3017 67.1573C97.3017 69.809 99.4583 71.961 102.116 71.961H117.843V79.3223C117.843 82.1151 120.111 84.3788 122.91 84.3788C125.709 84.3788 127.978 82.1151 127.978 79.3223V35.9658C127.978 33.1729 125.709 30.9093 122.91 30.9093" fill="#0094D6"/>
<path d="M143.34 65.56V64H154.62V65.56H149.84V78H148.12V65.56H143.34ZM156.213 65.1C156.213 64.7533 156.326 64.4933 156.553 64.32C156.78 64.1333 157.026 64.04 157.293 64.04C157.56 64.04 157.806 64.1333 158.033 64.32C158.26 64.4933 158.373 64.76 158.373 65.12C158.373 65.48 158.26 65.7467 158.033 65.92C157.806 66.0933 157.56 66.18 157.293 66.18C157.026 66.18 156.78 66.0933 156.553 65.92C156.326 65.7333 156.213 65.46 156.213 65.1ZM156.453 68.08H158.093V78H156.453V68.08ZM162.862 78H161.222V64H162.862V78ZM180.822 63.98V77.98H179.282L179.202 76.18C178.802 76.86 178.268 77.3667 177.602 77.7C176.935 78.02 176.235 78.18 175.502 78.18C174.795 78.18 174.135 78.0667 173.522 77.84C172.922 77.6133 172.395 77.28 171.942 76.84C171.488 76.4 171.135 75.8667 170.882 75.24C170.628 74.6 170.502 73.8733 170.502 73.06C170.502 72.2333 170.628 71.5 170.882 70.86C171.135 70.22 171.488 69.6867 171.942 69.26C172.395 68.82 172.922 68.4933 173.522 68.28C174.122 68.0533 174.775 67.94 175.482 67.94C175.828 67.94 176.182 67.98 176.542 68.06C176.915 68.14 177.262 68.2667 177.582 68.44C177.915 68.6 178.222 68.8067 178.502 69.06C178.782 69.3 179.008 69.5867 179.182 69.92V64H180.802L180.822 63.98ZM175.622 69.46C175.142 69.46 174.688 69.54 174.262 69.7C173.848 69.8467 173.482 70.0733 173.162 70.38C172.842 70.6867 172.588 71.0667 172.402 71.52C172.228 71.96 172.142 72.4667 172.142 73.04C172.142 73.6133 172.228 74.12 172.402 74.56C172.588 75 172.842 75.3733 173.162 75.68C173.482 75.9867 173.848 76.22 174.262 76.38C174.688 76.54 175.142 76.62 175.622 76.62C176.115 76.62 176.575 76.5333 177.002 76.36C177.428 76.1867 177.795 75.9467 178.102 75.64C178.422 75.32 178.668 74.94 178.842 74.5C179.028 74.06 179.122 73.5667 179.122 73.02C179.122 72.4867 179.028 72.0067 178.842 71.58C178.668 71.14 178.422 70.7667 178.102 70.46C177.782 70.14 177.408 69.8933 176.982 69.72C176.555 69.5467 176.095 69.46 175.602 69.46H175.622ZM192.656 76.42C192.15 77.02 191.503 77.4667 190.716 77.76C189.943 78.04 189.17 78.18 188.396 78.18C187.636 78.18 186.936 78.06 186.296 77.82C185.656 77.58 185.103 77.2333 184.636 76.78C184.183 76.3267 183.83 75.7867 183.576 75.16C183.323 74.52 183.196 73.8067 183.196 73.02C183.196 72.2733 183.323 71.5867 183.576 70.96C183.83 70.3333 184.183 69.7933 184.636 69.34C185.09 68.8867 185.63 68.5333 186.256 68.28C186.883 68.0267 187.57 67.9 188.316 67.9C189.076 67.9 189.776 68.02 190.416 68.26C191.056 68.4867 191.603 68.84 192.056 69.32C192.51 69.8 192.843 70.4067 193.056 71.14C193.283 71.86 193.35 72.7133 193.256 73.7H184.856C184.896 74.1533 185.016 74.5667 185.216 74.94C185.416 75.3 185.676 75.6067 185.996 75.86C186.316 76.1133 186.683 76.3133 187.096 76.46C187.51 76.5933 187.956 76.66 188.436 76.66C188.716 76.66 189.003 76.6333 189.296 76.58C189.603 76.5267 189.896 76.4467 190.176 76.34C190.456 76.2333 190.716 76.1067 190.956 75.96C191.21 75.8 191.416 75.62 191.576 75.42L192.676 76.42H192.656ZM191.696 72.34C191.656 71.38 191.33 70.6467 190.716 70.14C190.116 69.6333 189.33 69.38 188.356 69.38C187.49 69.38 186.723 69.6333 186.056 70.14C185.403 70.6333 185.003 71.36 184.856 72.32H191.696V72.34ZM197.075 68.1L197.195 69.58C197.542 68.94 197.988 68.5067 198.535 68.28C199.095 68.0533 199.662 67.94 200.235 67.94C200.662 67.9267 201.075 67.9933 201.475 68.14C201.875 68.2733 202.228 68.4533 202.535 68.68L201.795 70.08C201.528 69.8933 201.262 69.76 200.995 69.68C200.728 69.5867 200.422 69.54 200.075 69.54C199.675 69.54 199.302 69.6133 198.955 69.76C198.608 69.8933 198.302 70.0867 198.035 70.34C197.768 70.5933 197.555 70.9067 197.395 71.28C197.248 71.64 197.175 72.0467 197.175 72.5V78H195.535V68.12H197.055L197.075 68.1ZM210.339 64.02V69.76C210.765 69.1067 211.279 68.6533 211.879 68.4C212.492 68.1467 213.119 68.0133 213.759 68C214.452 68 215.059 68.1133 215.579 68.34C216.099 68.5533 216.525 68.86 216.859 69.26C217.205 69.66 217.465 70.14 217.639 70.7C217.812 71.26 217.899 71.88 217.899 72.56V78H216.279V72.58C216.279 71.6067 216.039 70.86 215.559 70.34C215.079 69.8067 214.385 69.54 213.479 69.54C213.025 69.54 212.605 69.6267 212.219 69.8C211.845 69.96 211.519 70.1867 211.239 70.48C210.959 70.7733 210.739 71.1133 210.579 71.5C210.432 71.8867 210.359 72.3067 210.359 72.76V78H208.719V64H210.339V64.02ZM221.59 68.12L223.19 71.98L224.87 76.26L226.53 72L228.13 68.12H229.93L225.77 78.02H223.97L219.79 68.12H221.59ZM230.872 73.08C230.872 72.32 230.998 71.62 231.252 70.98C231.518 70.34 231.878 69.7933 232.332 69.34C232.785 68.8867 233.325 68.5333 233.952 68.28C234.578 68.0267 235.258 67.9 235.992 67.9C236.752 67.9 237.445 68.0267 238.072 68.28C238.698 68.5333 239.238 68.8867 239.692 69.34C240.145 69.7933 240.498 70.34 240.752 70.98C241.005 71.62 241.132 72.32 241.132 73.08C241.132 73.8267 241.005 74.5133 240.752 75.14C240.498 75.7667 240.138 76.3067 239.672 76.76C239.218 77.2133 238.678 77.5667 238.052 77.82C237.425 78.06 236.738 78.18 235.992 78.18C235.245 78.18 234.558 78.06 233.932 77.82C233.318 77.5667 232.778 77.2133 232.312 76.76C231.858 76.3067 231.505 75.7667 231.252 75.14C230.998 74.5133 230.872 73.8267 230.872 73.08ZM239.512 73.08C239.512 72.5333 239.418 72.0333 239.232 71.58C239.058 71.1267 238.812 70.74 238.492 70.42C238.185 70.1 237.818 69.8533 237.392 69.68C236.965 69.4933 236.505 69.4 236.012 69.4C235.505 69.4 235.038 69.4933 234.612 69.68C234.185 69.8533 233.812 70.1 233.492 70.42C233.185 70.74 232.945 71.1267 232.772 71.58C232.598 72.0333 232.512 72.5333 232.512 73.08C232.512 73.6 232.598 74.08 232.772 74.52C232.945 74.9467 233.185 75.32 233.492 75.64C233.798 75.96 234.165 76.2067 234.592 76.38C235.018 76.5533 235.485 76.64 235.992 76.64C236.498 76.64 236.965 76.5533 237.392 76.38C237.832 76.2067 238.205 75.96 238.512 75.64C238.818 75.32 239.058 74.9467 239.232 74.52C239.418 74.08 239.512 73.6 239.512 73.08ZM245.024 68.1L245.144 69.58C245.491 68.94 245.938 68.5067 246.484 68.28C247.044 68.0533 247.611 67.94 248.184 67.94C248.611 67.9267 249.024 67.9933 249.424 68.14C249.824 68.2733 250.178 68.4533 250.484 68.68L249.744 70.08C249.478 69.8933 249.211 69.76 248.944 69.68C248.678 69.5867 248.371 69.54 248.024 69.54C247.624 69.54 247.251 69.6133 246.904 69.76C246.558 69.8933 246.251 70.0867 245.984 70.34C245.718 70.5933 245.504 70.9067 245.344 71.28C245.198 71.64 245.124 72.0467 245.124 72.5V78H243.484V68.12H245.004L245.024 68.1ZM266.388 63.98V77.98H264.848L264.768 76.18C264.368 76.86 263.835 77.3667 263.168 77.7C262.501 78.02 261.801 78.18 261.068 78.18C260.361 78.18 259.701 78.0667 259.088 77.84C258.488 77.6133 257.961 77.28 257.508 76.84C257.055 76.4 256.701 75.8667 256.448 75.24C256.195 74.6 256.068 73.8733 256.068 73.06C256.068 72.2333 256.195 71.5 256.448 70.86C256.701 70.22 257.055 69.6867 257.508 69.26C257.961 68.82 258.488 68.4933 259.088 68.28C259.688 68.0533 260.341 67.94 261.048 67.94C261.395 67.94 261.748 67.98 262.108 68.06C262.481 68.14 262.828 68.2667 263.148 68.44C263.481 68.6 263.788 68.8067 264.068 69.06C264.348 69.3 264.575 69.5867 264.748 69.92V64H266.368L266.388 63.98ZM261.188 69.46C260.708 69.46 260.255 69.54 259.828 69.7C259.415 69.8467 259.048 70.0733 258.728 70.38C258.408 70.6867 258.155 71.0667 257.968 71.52C257.795 71.96 257.708 72.4667 257.708 73.04C257.708 73.6133 257.795 74.12 257.968 74.56C258.155 75 258.408 75.3733 258.728 75.68C259.048 75.9867 259.415 76.22 259.828 76.38C260.255 76.54 260.708 76.62 261.188 76.62C261.681 76.62 262.141 76.5333 262.568 76.36C262.995 76.1867 263.361 75.9467 263.668 75.64C263.988 75.32 264.235 74.94 264.408 74.5C264.595 74.06 264.688 73.5667 264.688 73.02C264.688 72.4867 264.595 72.0067 264.408 71.58C264.235 71.14 263.988 70.7667 263.668 70.46C263.348 70.14 262.975 69.8933 262.548 69.72C262.121 69.5467 261.661 69.46 261.168 69.46H261.188ZM277.063 78L276.983 76.42C276.543 77.02 276.029 77.46 275.443 77.74C274.869 78.0067 274.236 78.1467 273.543 78.16C272.916 78.16 272.336 78.06 271.803 77.86C271.283 77.6467 270.829 77.3467 270.443 76.96C270.069 76.56 269.776 76.08 269.563 75.52C269.349 74.9467 269.243 74.3 269.243 73.58V68.12H270.883V73.56C270.883 74.52 271.143 75.2733 271.663 75.82C272.196 76.3667 272.936 76.64 273.883 76.64C274.336 76.64 274.749 76.5533 275.123 76.38C275.496 76.2067 275.816 75.98 276.083 75.7C276.349 75.4067 276.556 75.0667 276.703 74.68C276.849 74.28 276.923 73.86 276.923 73.42V68.12H278.563V78H277.043H277.063ZM287.788 79.66C287.788 80.14 287.881 80.5467 288.068 80.88C288.268 81.2267 288.528 81.5067 288.848 81.72C289.181 81.9467 289.554 82.1133 289.968 82.22C290.394 82.3267 290.834 82.38 291.288 82.38C291.714 82.38 292.134 82.34 292.548 82.26C292.961 82.18 293.334 82.0467 293.668 81.86C294.001 81.6733 294.268 81.4267 294.468 81.12C294.668 80.8267 294.768 80.4667 294.768 80.04C294.768 79.64 294.674 79.2867 294.488 78.98C294.301 78.6867 294.048 78.44 293.728 78.24C293.408 78.0533 293.034 77.9133 292.608 77.82C292.194 77.7133 291.761 77.66 291.308 77.66C290.534 77.66 289.828 77.5533 289.188 77.34C288.548 77.1133 287.994 76.7933 287.528 76.38C287.074 75.9533 286.721 75.44 286.468 74.84C286.214 74.24 286.088 73.5533 286.088 72.78C286.088 71.9667 286.241 71.2533 286.548 70.64C286.854 70.0267 287.254 69.52 287.748 69.12C288.241 68.7067 288.794 68.4 289.408 68.2C290.034 67.9867 290.668 67.88 291.308 67.88C291.761 67.88 292.248 67.94 292.768 68.06C293.301 68.18 293.748 68.3667 294.108 68.62L295.168 67.34L296.328 68.26L295.208 69.58C295.594 70.02 295.901 70.4867 296.128 70.98C296.368 71.46 296.487 72.06 296.487 72.78C296.487 73.2067 296.434 73.6267 296.328 74.04C296.221 74.44 296.048 74.82 295.808 75.18C295.581 75.54 295.294 75.86 294.948 76.14C294.601 76.42 294.188 76.64 293.708 76.8C294.668 77.08 295.361 77.5067 295.788 78.08C296.214 78.6533 296.428 79.3 296.428 80.02C296.428 80.66 296.281 81.22 295.988 81.7C295.694 82.18 295.308 82.58 294.828 82.9C294.348 83.2333 293.794 83.48 293.168 83.64C292.554 83.8 291.921 83.88 291.268 83.88C290.521 83.88 289.834 83.78 289.208 83.58C288.581 83.3933 288.041 83.12 287.588 82.76C287.148 82.4 286.801 81.96 286.548 81.44C286.308 80.92 286.194 80.3267 286.208 79.66H287.788ZM287.708 72.78C287.721 73.34 287.821 73.84 288.008 74.28C288.208 74.7067 288.468 75.0667 288.788 75.36C289.121 75.64 289.501 75.8533 289.928 76C290.368 76.1467 290.834 76.22 291.328 76.22C291.848 76.22 292.328 76.1333 292.768 75.96C293.208 75.7733 293.581 75.5267 293.888 75.22C294.208 74.9133 294.454 74.5533 294.628 74.14C294.801 73.7267 294.888 73.28 294.888 72.8C294.888 72.24 294.788 71.7467 294.588 71.32C294.388 70.8933 294.121 70.54 293.788 70.26C293.468 69.9667 293.088 69.7467 292.648 69.6C292.221 69.4533 291.774 69.38 291.308 69.38C290.868 69.38 290.428 69.4533 289.988 69.6C289.561 69.7333 289.174 69.94 288.828 70.22C288.494 70.5 288.221 70.8533 288.008 71.28C287.808 71.7067 287.708 72.2067 287.708 72.78ZM307.754 76.42C307.247 77.02 306.601 77.4667 305.814 77.76C305.041 78.04 304.267 78.18 303.494 78.18C302.734 78.18 302.034 78.06 301.394 77.82C300.754 77.58 300.201 77.2333 299.734 76.78C299.281 76.3267 298.927 75.7867 298.674 75.16C298.421 74.52 298.294 73.8067 298.294 73.02C298.294 72.2733 298.421 71.5867 298.674 70.96C298.927 70.3333 299.281 69.7933 299.734 69.34C300.187 68.8867 300.727 68.5333 301.354 68.28C301.981 68.0267 302.667 67.9 303.414 67.9C304.174 67.9 304.874 68.02 305.514 68.26C306.154 68.4867 306.701 68.84 307.154 69.32C307.607 69.8 307.941 70.4067 308.154 71.14C308.381 71.86 308.447 72.7133 308.354 73.7H299.954C299.994 74.1533 300.114 74.5667 300.314 74.94C300.514 75.3 300.774 75.6067 301.094 75.86C301.414 76.1133 301.781 76.3133 302.194 76.46C302.607 76.5933 303.054 76.66 303.534 76.66C303.814 76.66 304.101 76.6333 304.394 76.58C304.701 76.5267 304.994 76.4467 305.274 76.34C305.554 76.2333 305.814 76.1067 306.054 75.96C306.307 75.8 306.514 75.62 306.674 75.42L307.774 76.42H307.754ZM306.794 72.34C306.754 71.38 306.427 70.6467 305.814 70.14C305.214 69.6333 304.427 69.38 303.454 69.38C302.587 69.38 301.821 69.6333 301.154 70.14C300.501 70.6333 300.101 71.36 299.954 72.32H306.794V72.34ZM312.173 68.1L312.293 69.58C312.639 68.94 313.086 68.5067 313.633 68.28C314.193 68.0533 314.759 67.94 315.333 67.94C315.759 67.9267 316.173 67.9933 316.573 68.14C316.973 68.2733 317.326 68.4533 317.633 68.68L316.893 70.08C316.626 69.8933 316.359 69.76 316.093 69.68C315.826 69.5867 315.519 69.54 315.173 69.54C314.773 69.54 314.399 69.6133 314.053 69.76C313.706 69.8933 313.399 70.0867 313.133 70.34C312.866 70.5933 312.653 70.9067 312.493 71.28C312.346 71.64 312.273 72.0467 312.273 72.5V78H310.633V68.12H312.153L312.173 68.1ZM319.188 68.1H320.688L320.768 69.68C321.194 69.08 321.694 68.6467 322.268 68.38C322.854 68.1 323.481 67.96 324.148 67.96C324.774 67.96 325.348 68.0667 325.868 68.28C326.401 68.48 326.861 68.7733 327.248 69.16C327.634 69.5467 327.934 70.0267 328.148 70.6C328.374 71.1733 328.488 71.82 328.488 72.54V78H326.848V72.56C326.848 71.6 326.581 70.8467 326.048 70.3C325.528 69.7533 324.794 69.48 323.848 69.48C323.394 69.48 322.981 69.5667 322.608 69.74C322.234 69.9133 321.914 70.1467 321.648 70.44C321.381 70.72 321.174 71.06 321.028 71.46C320.881 71.8467 320.808 72.26 320.808 72.7V78H319.188V68.12V68.1ZM340.195 76.42C339.689 77.02 339.042 77.4667 338.255 77.76C337.482 78.04 336.709 78.18 335.935 78.18C335.175 78.18 334.475 78.06 333.835 77.82C333.195 77.58 332.642 77.2333 332.175 76.78C331.722 76.3267 331.369 75.7867 331.115 75.16C330.862 74.52 330.735 73.8067 330.735 73.02C330.735 72.2733 330.862 71.5867 331.115 70.96C331.369 70.3333 331.722 69.7933 332.175 69.34C332.629 68.8867 333.169 68.5333 333.795 68.28C334.422 68.0267 335.109 67.9 335.855 67.9C336.615 67.9 337.315 68.02 337.955 68.26C338.595 68.4867 339.142 68.84 339.595 69.32C340.049 69.8 340.382 70.4067 340.595 71.14C340.822 71.86 340.889 72.7133 340.795 73.7H332.395C332.435 74.1533 332.555 74.5667 332.755 74.94C332.955 75.3 333.215 75.6067 333.535 75.86C333.855 76.1133 334.222 76.3133 334.635 76.46C335.049 76.5933 335.495 76.66 335.975 76.66C336.255 76.66 336.542 76.6333 336.835 76.58C337.142 76.5267 337.435 76.4467 337.715 76.34C337.995 76.2333 338.255 76.1067 338.495 75.96C338.749 75.8 338.955 75.62 339.115 75.42L340.215 76.42H340.195ZM339.235 72.34C339.195 71.38 338.869 70.6467 338.255 70.14C337.655 69.6333 336.869 69.38 335.895 69.38C335.029 69.38 334.262 69.6333 333.595 70.14C332.942 70.6333 332.542 71.36 332.395 72.32H339.235V72.34ZM348.485 68.12L350.085 71.98L351.765 76.26L353.425 72L355.025 68.12H356.825L352.665 78.02H350.865L346.685 68.12H348.485ZM358.615 65.1C358.615 64.7533 358.729 64.4933 358.955 64.32C359.182 64.1333 359.429 64.04 359.695 64.04C359.962 64.04 360.209 64.1333 360.435 64.32C360.662 64.4933 360.775 64.76 360.775 65.12C360.775 65.48 360.662 65.7467 360.435 65.92C360.209 66.0933 359.962 66.18 359.695 66.18C359.429 66.18 359.182 66.0933 358.955 65.92C358.729 65.7333 358.615 65.46 358.615 65.1ZM358.855 68.08H360.495V78H358.855V68.08ZM365.264 78H363.624V64H365.264V78ZM373.797 68.12L375.397 71.98L377.077 76.26L378.737 72L380.337 68.12H382.137L377.977 78.02H376.177L371.997 68.12H373.797ZM392.288 78.06V76.26C392.088 76.6067 391.848 76.9067 391.568 77.16C391.301 77.4 391.001 77.6067 390.668 77.78C390.348 77.94 390.008 78.06 389.648 78.14C389.301 78.22 388.955 78.26 388.608 78.26C387.901 78.26 387.235 78.14 386.608 77.9C385.995 77.66 385.461 77.32 385.008 76.88C384.555 76.4267 384.195 75.88 383.928 75.24C383.675 74.6 383.548 73.88 383.548 73.08C383.548 72.28 383.681 71.5667 383.948 70.94C384.215 70.3 384.575 69.76 385.028 69.32C385.481 68.88 386.015 68.5467 386.628 68.32C387.241 68.0933 387.901 67.98 388.608 67.98C389.355 67.98 390.068 68.1467 390.748 68.48C391.428 68.8133 391.948 69.3 392.308 69.94L392.328 68.14H393.608V69.84C394.035 69.2 394.575 68.72 395.228 68.4C395.881 68.08 396.595 67.9267 397.368 67.94C398.048 67.94 398.701 68.0667 399.328 68.32C399.968 68.5733 400.515 68.94 400.968 69.42C401.435 69.9 401.775 70.5 401.988 71.22C402.215 71.94 402.261 72.7733 402.128 73.72H393.748C393.841 74.64 394.215 75.3667 394.868 75.9C395.535 76.42 396.348 76.68 397.308 76.68C397.588 76.68 397.875 76.6533 398.168 76.6C398.475 76.5467 398.768 76.4667 399.048 76.36C399.328 76.2533 399.588 76.1267 399.828 75.98C400.081 75.82 400.288 75.64 400.448 75.44L401.528 76.44C401.021 77.04 400.375 77.4867 399.588 77.78C398.815 78.06 398.041 78.2 397.268 78.2C396.428 78.2 395.695 78.04 395.068 77.72C394.441 77.3867 393.941 76.92 393.568 76.32L393.528 78H392.268L392.288 78.06ZM400.568 72.4C400.528 71.44 400.201 70.7067 399.588 70.2C398.988 69.6933 398.208 69.44 397.248 69.44C396.381 69.44 395.621 69.6933 394.968 70.2C394.315 70.6933 393.915 71.42 393.768 72.38H400.588L400.568 72.4ZM388.708 69.56C388.215 69.56 387.755 69.6467 387.328 69.82C386.901 69.98 386.528 70.22 386.208 70.54C385.888 70.8467 385.635 71.2267 385.448 71.68C385.261 72.12 385.168 72.6133 385.168 73.16C385.168 73.7067 385.261 74.2067 385.448 74.66C385.635 75.1 385.888 75.48 386.208 75.8C386.528 76.1067 386.901 76.3467 387.328 76.52C387.755 76.6933 388.215 76.78 388.708 76.78C389.508 76.78 390.175 76.6 390.708 76.24C391.255 75.88 391.661 75.4333 391.928 74.9C392.195 74.3667 392.328 73.7867 392.328 73.16C392.328 72.5333 392.195 71.9533 391.928 71.42C391.661 70.8867 391.255 70.44 390.708 70.08C390.175 69.72 389.508 69.54 388.708 69.54V69.56ZM405.962 68.1L406.082 69.58C406.429 68.94 406.875 68.5067 407.422 68.28C407.982 68.0533 408.549 67.94 409.122 67.94C409.549 67.9267 409.962 67.9933 410.362 68.14C410.762 68.2733 411.115 68.4533 411.422 68.68L410.682 70.08C410.415 69.8933 410.149 69.76 409.882 69.68C409.615 69.5867 409.309 69.54 408.962 69.54C408.562 69.54 408.189 69.6133 407.842 69.76C407.495 69.8933 407.189 70.0867 406.922 70.34C406.655 70.5933 406.442 70.9067 406.282 71.28C406.135 71.64 406.062 72.0467 406.062 72.5V78H404.422V68.12H405.942L405.962 68.1ZM421.817 76.42C421.31 77.02 420.663 77.4667 419.877 77.76C419.103 78.04 418.33 78.18 417.557 78.18C416.797 78.18 416.097 78.06 415.457 77.82C414.817 77.58 414.263 77.2333 413.797 76.78C413.343 76.3267 412.99 75.7867 412.737 75.16C412.483 74.52 412.357 73.8067 412.357 73.02C412.357 72.2733 412.483 71.5867 412.737 70.96C412.99 70.3333 413.343 69.7933 413.797 69.34C414.25 68.8867 414.79 68.5333 415.417 68.28C416.043 68.0267 416.73 67.9 417.477 67.9C418.237 67.9 418.937 68.02 419.577 68.26C420.217 68.4867 420.763 68.84 421.217 69.32C421.67 69.8 422.003 70.4067 422.217 71.14C422.443 71.86 422.51 72.7133 422.417 73.7H414.017C414.057 74.1533 414.177 74.5667 414.377 74.94C414.577 75.3 414.837 75.6067 415.157 75.86C415.477 76.1133 415.843 76.3133 416.257 76.46C416.67 76.5933 417.117 76.66 417.597 76.66C417.877 76.66 418.163 76.6333 418.457 76.58C418.763 76.5267 419.057 76.4467 419.337 76.34C419.617 76.2333 419.877 76.1067 420.117 75.96C420.37 75.8 420.577 75.62 420.737 75.42L421.837 76.42H421.817ZM420.857 72.34C420.817 71.38 420.49 70.6467 419.877 70.14C419.277 69.6333 418.49 69.38 417.517 69.38C416.65 69.38 415.883 69.6333 415.217 70.14C414.563 70.6333 414.163 71.36 414.017 72.32H420.857V72.34Z" fill="black"/>
</svg>
